<svg width="122" height="30" viewBox="0 0 122 30" fill="none" xmlns="http://www.w3.org/2000/svg">
<path d="M36 22H45V19.2727H39.1988V9H36V22Z" fill="white"/>
<path d="M49.9909 19.8598C48.6929 19.8598 48.0165 18.7159 48.0165 17C48.0165 15.2841 48.6929 14.1218 49.9909 14.1218C51.2889 14.1218 51.9835 15.2841 51.9835 17C51.9835 18.7159 51.2889 19.8598 49.9909 19.8598ZM50.0091 22C53.0256 22 55 19.8413 55 17C55 14.1587 53.0256 12 50.0091 12C47.011 12 45 14.1587 45 17C45 19.8413 47.011 22 50.0091 22Z" fill="white"/>
<path d="M59.5435 24C60.8665 24 62.0329 23.7102 62.8162 23.0284C63.53 22.3977 64 21.4432 64 20.1307V12.2557H61.2843V13.1932H61.2495C60.7273 12.4602 59.9265 12 58.7427 12C56.5319 12 55 13.8068 55 16.3636C55 19.0398 56.8627 20.5057 58.8646 20.5057C59.9439 20.5057 60.6228 20.0795 61.1451 19.5H61.2147V20.3693C61.2147 21.4261 60.7099 22.0398 59.5087 22.0398C58.5687 22.0398 58.0986 21.6477 57.942 21.1875H55.1915C55.47 23.0114 57.089 24 59.5435 24ZM59.5261 18.4432C58.4642 18.4432 57.7679 17.5909 57.7679 16.2784C57.7679 14.9489 58.4642 14.0966 59.5261 14.0966C60.7099 14.0966 61.3366 15.0852 61.3366 16.2614C61.3366 17.4886 60.7621 18.4432 59.5261 18.4432Z" fill="white"/>
<path d="M69.9907 19.8598C68.6928 19.8598 68.0164 18.7159 68.0164 17C68.0164 15.2841 68.6928 14.1218 69.9907 14.1218C71.2887 14.1218 71.9834 15.2841 71.9834 17C71.9834 18.7159 71.2887 19.8598 69.9907 19.8598ZM70.009 22C73.0254 22 75 19.8413 75 17C75 14.1587 73.0254 12 70.009 12C67.0109 12 65 14.1587 65 17C65 19.8413 67.0109 22 70.009 22Z" fill="white"/>
<path d="M75 22H78V12.6909H75V22ZM75 11.4H78V9H75V11.4Z" fill="white"/>
<path d="M79 24H81.7523V20.1724H81.7861C82.3265 20.9138 83.1201 21.3621 84.2345 21.3621C86.4972 21.3621 88 19.5345 88 16.6724C88 14.0172 86.5985 12 84.3021 12C83.1201 12 82.2758 12.5345 81.6848 13.3276H81.6341V12.2586H79V24ZM83.5253 19.1897C82.3433 19.1897 81.6679 18.2069 81.6679 16.7759C81.6679 15.3448 82.2758 14.2586 83.4747 14.2586C84.6567 14.2586 85.2139 15.2586 85.2139 16.7759C85.2139 18.2759 84.5722 19.1897 83.5253 19.1897Z" fill="white"/>
<path d="M93.1328 22C95.3568 22 97 20.9319 97 18.8692C97 16.4567 95.2407 16.0331 93.7469 15.7569C92.668 15.5359 91.7054 15.4438 91.7054 14.7808C91.7054 14.1915 92.2199 13.9153 92.8838 13.9153C93.6307 13.9153 94.1452 14.1731 94.2448 15.0203H96.7344C96.6017 13.1602 95.307 12 92.9004 12C90.8921 12 89.2324 13.0313 89.2324 15.0203C89.2324 17.2302 90.8091 17.6722 92.2863 17.9484C93.4149 18.1694 94.444 18.2615 94.444 19.1087C94.444 19.7164 93.9295 20.0479 93.1162 20.0479C92.2199 20.0479 91.6556 19.5875 91.556 18.6483H89C89.083 20.7293 90.6432 22 93.1328 22Z" fill="white"/>
<path d="M101.293 21C102.591 21 103.415 20.5218 104.091 19.6679H104.146V20.7438H107V12H104.018V16.8843C104.018 17.926 103.396 18.6433 102.372 18.6433C101.421 18.6433 100.963 18.1139 100.963 17.1575V12H98V17.7381C98 19.685 99.1341 21 101.293 21Z" fill="white"/>
<path d="M108 21H110.87V16.0987C110.87 15.0569 111.399 14.3226 112.297 14.3226C113.16 14.3226 113.565 14.8691 113.565 15.8083V21H116.435V16.0987C116.435 15.0569 116.946 14.3226 117.862 14.3226C118.725 14.3226 119.13 14.8691 119.13 15.8083V21H122V15.3131C122 13.3491 120.979 12 118.936 12C117.774 12 116.805 12.4782 116.101 13.537H116.065C115.608 12.5977 114.709 12 113.53 12C112.226 12 111.364 12.5977 110.8 13.5028H110.747V12.2562H108V21Z" fill="white"/>
<path fill-rule="evenodd" clip-rule="evenodd" d="M6.20074 2.60845C5.16351 3.33372 4.22557 4.19121 3.41136 5.15649C6.73861 4.84759 10.9658 5.35199 15.8734 7.80584C21.1142 10.4261 25.3343 10.5147 28.2712 9.94822C28.0047 9.14137 27.6692 8.36591 27.2718 7.62873C23.9098 7.98333 19.5996 7.51396 14.5765 5.00249C11.3868 3.40763 8.57513 2.75066 6.20074 2.60845ZM25.3079 4.83332C22.6528 1.86687 18.7945 0 14.5 0C13.2388 0 12.0152 0.161028 10.8487 0.463623C12.4286 0.894712 14.107 1.52539 15.8734 2.40864C19.5511 4.24743 22.7261 4.83949 25.3079 4.83332ZM28.8992 12.7804C25.351 13.481 20.4514 13.3371 14.5765 10.3997C9.08423 7.65352 4.71282 7.68811 1.76458 8.34329C1.6124 8.37707 1.46381 8.4126 1.3188 8.44957C0.9328 9.28905 0.624685 10.1718 0.403609 11.0885C0.63973 11.0254 0.883725 10.9655 1.13547 10.9095C4.71219 10.1147 9.7658 10.1492 15.8734 13.203C21.3658 15.9492 25.7372 15.9146 28.6855 15.2594C28.7865 15.237 28.886 15.2138 28.9839 15.1899C28.9946 14.9613 29 14.7313 29 14.5C29 13.9182 28.9658 13.3443 28.8992 12.7804ZM28.5105 18.2499C24.9968 18.8642 20.2398 18.6284 14.5765 15.7969C9.08423 13.0507 4.71282 13.0853 1.76458 13.7405C1.11016 13.8858 0.521449 14.063 0.00212425 14.2499C0.000708326 14.3331 0 14.4165 0 14.5C0 22.5081 6.49187 29 14.5 29C21.2114 29 26.8578 24.4404 28.5105 18.2499Z" fill="#A9A9A9"/>
</svg>
