<svg width="187" height="30" viewBox="0 0 187 30" fill="none" xmlns="http://www.w3.org/2000/svg">
<path fill-rule="evenodd" clip-rule="evenodd" d="M11.4891 7.68788C5.41967 11.9106 0.325055 15.5415 0.167452 15.757C-0.0623956 16.0712 -0.057334 16.2673 0.193221 16.7505C0.572159 17.4811 1.60222 18.6171 1.8859 18.6171C1.9991 18.6171 6.73916 15.4033 12.4191 11.4752C18.4306 7.31809 22.9003 4.3738 23.1145 4.42968C23.317 4.48257 27.667 7.41997 32.7817 10.9571C44.3955 18.9892 43.8891 18.6592 44.3346 18.4884C44.861 18.2865 46.1414 16.2142 45.9872 15.8131C45.9166 15.6287 43.8438 14.0962 41.3813 12.4075L36.904 9.33722V6.14318C36.904 4.38116 36.7972 2.74953 36.6658 2.50415C36.4528 2.10608 36.1638 2.05939 33.9185 2.05939C32.1625 2.05939 31.354 2.14563 31.2257 2.34685C31.1244 2.50507 30.9889 3.18026 30.9245 3.84763L30.8069 5.06095L27.0891 2.52531C25.0444 1.13078 23.1808 -0.0057275 22.9477 2.17169e-05C22.7148 0.00554097 17.5583 3.46519 11.4891 7.68788ZM18.9579 11.1556C14.8501 12.0368 10.191 14.6801 6.36115 18.3021C5.57037 19.0502 4.92316 19.8374 4.92316 20.0515C4.92316 20.619 6.08643 21.8546 8.58577 23.9414C16.9229 30.903 24.3827 31.8093 33.3378 26.9487C36.1302 25.433 40.9211 21.3763 41.1919 20.2982C41.313 19.8162 41.1029 19.4892 39.8676 18.2366C35.1209 13.4235 28.9074 10.7612 22.5515 10.8164C21.3977 10.8265 19.7804 10.9792 18.9579 11.1556ZM24.8918 13.3368C29.8024 14.469 32.2764 19.0539 30.2089 23.1896C27.9256 27.7566 21.0116 28.7188 17.2797 24.9887C14.2853 21.9956 14.6571 17.3282 18.0917 14.801C18.8491 14.2438 19.5349 13.7832 19.6159 13.7777C19.6969 13.7722 20.2809 13.6238 20.9136 13.4481C22.2945 13.065 23.5595 13.0296 24.8918 13.3368ZM21.2322 15.485C19.95 15.9428 19.0184 16.7075 18.3468 17.853C16.997 20.155 17.7926 22.9806 20.2114 24.4754C21.2239 25.1011 21.527 25.1713 23.2143 25.1713C24.9017 25.1713 25.2047 25.1011 26.2173 24.4754C27.806 23.4934 28.6911 22.0002 28.7049 20.2787C28.7114 19.4627 28.5696 18.6997 28.3322 18.2722C28.0504 17.7642 27.947 17.6943 27.9401 18.0068C27.9153 19.1477 26.4352 20.4569 25.17 20.4569C23.8583 20.4569 22.4091 19.1291 22.4091 17.9272C22.4091 17.1732 23.1193 16.1172 23.8413 15.7977C24.1924 15.6425 24.4798 15.4371 24.4798 15.3415C24.4798 15.0591 22.1344 15.1626 21.2322 15.485ZM12.6823 17.6398C11.6831 19.7658 11.692 21.1859 12.7173 23.1836L13.4676 24.6456L11.7838 23.4817C10.8576 22.8414 9.64735 21.8563 9.09401 21.2924L8.08811 20.2672L9.20905 19.0608C10.1848 18.0105 12.7898 16.096 13.2513 16.0898C13.3396 16.0884 13.0836 16.7859 12.6823 17.6398ZM34.0793 16.8733C34.8169 17.3054 35.9749 18.2448 36.6525 18.961L37.8846 20.263L36.8766 21.2903C36.3221 21.8553 35.1259 22.8311 34.218 23.4587L32.5675 24.5996L33.2773 23.18C34.2659 21.2025 34.2684 19.7274 33.2867 17.6398C32.8852 16.7859 32.5974 16.0875 32.6473 16.0875C32.6972 16.0875 33.3415 16.4412 34.0793 16.8733Z" fill="#FFBD09"/>
<path d="M55.3274 23V7.72727H61.353C62.5114 7.72727 63.4982 7.94851 64.3136 8.39098C65.1289 8.82848 65.7504 9.4375 66.1779 10.218C66.6104 10.9936 66.8267 11.8885 66.8267 12.9027C66.8267 13.9169 66.608 14.8118 66.1705 15.5874C65.733 16.3629 65.0991 16.967 64.2688 17.3995C63.4435 17.832 62.4442 18.0483 61.271 18.0483H57.4304V15.4606H60.7489C61.3704 15.4606 61.8825 15.3537 62.2852 15.1399C62.6928 14.9212 62.9961 14.6204 63.195 14.2376C63.3988 13.8498 63.5007 13.4048 63.5007 12.9027C63.5007 12.3956 63.3988 11.9531 63.195 11.5753C62.9961 11.1925 62.6928 10.8967 62.2852 10.6879C61.8775 10.4741 61.3604 10.3672 60.734 10.3672H58.5565V23H55.3274ZM68.8644 23V11.5455H71.9443V13.544H72.0637C72.2725 12.8331 72.623 12.2962 73.1151 11.9332C73.6073 11.5653 74.1741 11.3814 74.8154 11.3814C74.9745 11.3814 75.146 11.3913 75.33 11.4112C75.5139 11.4311 75.6755 11.4585 75.8147 11.4933V14.3121C75.6656 14.2674 75.4593 14.2276 75.1958 14.1928C74.9323 14.158 74.6911 14.1406 74.4724 14.1406C74.0051 14.1406 73.5874 14.2425 73.2195 14.4464C72.8566 14.6452 72.5683 14.9237 72.3545 15.2816C72.1457 15.6396 72.0413 16.0522 72.0413 16.5195V23H68.8644ZM82.0994 23.2237C80.9411 23.2237 79.9393 22.9776 79.0941 22.4854C78.2539 21.9883 77.6051 21.2972 77.1477 20.4123C76.6903 19.5224 76.4616 18.4908 76.4616 17.3175C76.4616 16.1342 76.6903 15.1001 77.1477 14.2152C77.6051 13.3253 78.2539 12.6342 79.0941 12.142C79.9393 11.6449 80.9411 11.3963 82.0994 11.3963C83.2578 11.3963 84.2571 11.6449 85.0973 12.142C85.9425 12.6342 86.5938 13.3253 87.0511 14.2152C87.5085 15.1001 87.7372 16.1342 87.7372 17.3175C87.7372 18.4908 87.5085 19.5224 87.0511 20.4123C86.5938 21.2972 85.9425 21.9883 85.0973 22.4854C84.2571 22.9776 83.2578 23.2237 82.0994 23.2237ZM82.1143 20.7628C82.6413 20.7628 83.0813 20.6136 83.4343 20.3153C83.7873 20.0121 84.0533 19.5994 84.2322 19.0774C84.4162 18.5554 84.5082 17.9613 84.5082 17.2951C84.5082 16.6289 84.4162 16.0348 84.2322 15.5128C84.0533 14.9908 83.7873 14.5781 83.4343 14.2749C83.0813 13.9716 82.6413 13.82 82.1143 13.82C81.5824 13.82 81.1349 13.9716 80.772 14.2749C80.4141 14.5781 80.1431 14.9908 79.9592 15.5128C79.7802 16.0348 79.6907 16.6289 79.6907 17.2951C79.6907 17.9613 79.7802 18.5554 79.9592 19.0774C80.1431 19.5994 80.4141 20.0121 80.772 20.3153C81.1349 20.6136 81.5824 20.7628 82.1143 20.7628ZM89.8029 27.2955V11.5455H92.935V13.4695H93.0767C93.2159 13.1612 93.4173 12.848 93.6808 12.5298C93.9492 12.2067 94.2972 11.9382 94.7248 11.7244C95.1573 11.5057 95.6942 11.3963 96.3356 11.3963C97.1708 11.3963 97.9414 11.6151 98.6474 12.0526C99.3533 12.4851 99.9176 13.1388 100.34 14.0138C100.763 14.8839 100.974 15.9751 100.974 17.2876C100.974 18.5653 100.768 19.6442 100.355 20.5241C99.9474 21.3991 99.3906 22.0629 98.6847 22.5153C97.9837 22.9627 97.1982 23.1864 96.3281 23.1864C95.7116 23.1864 95.1871 23.0845 94.7546 22.8807C94.3271 22.6768 93.9766 22.4208 93.7031 22.1126C93.4297 21.7994 93.2209 21.4837 93.0767 21.1655H92.9798V27.2955H89.8029ZM92.9126 17.2727C92.9126 17.9538 93.0071 18.5479 93.196 19.055C93.3849 19.5621 93.6584 19.9574 94.0163 20.2408C94.3743 20.5192 94.8093 20.6584 95.3214 20.6584C95.8384 20.6584 96.2759 20.5167 96.6339 20.2333C96.9918 19.945 97.2628 19.5472 97.4467 19.0401C97.6357 18.5281 97.7301 17.9389 97.7301 17.2727C97.7301 16.6115 97.6381 16.0298 97.4542 15.5277C97.2702 15.0256 96.9993 14.6328 96.6413 14.3494C96.2834 14.0661 95.8434 13.9244 95.3214 13.9244C94.8043 13.9244 94.3668 14.0611 94.0089 14.3345C93.6559 14.608 93.3849 14.9957 93.196 15.4979C93.0071 16 92.9126 16.5916 92.9126 17.2727ZM108.312 23.2237C107.134 23.2237 106.12 22.9851 105.27 22.5078C104.424 22.0256 103.773 21.3445 103.316 20.4645C102.858 19.5795 102.63 18.533 102.63 17.3249C102.63 16.1467 102.858 15.1126 103.316 14.2227C103.773 13.3327 104.417 12.6392 105.247 12.142C106.082 11.6449 107.062 11.3963 108.185 11.3963C108.941 11.3963 109.645 11.5181 110.296 11.7617C110.952 12.0004 111.524 12.3608 112.011 12.843C112.503 13.3253 112.886 13.9318 113.159 14.6626C113.433 15.3885 113.57 16.2386 113.57 17.2131V18.0856H103.897V16.1168H110.579C110.579 15.6594 110.48 15.2543 110.281 14.9013C110.082 14.5483 109.806 14.2724 109.453 14.0735C109.105 13.8697 108.7 13.7678 108.238 13.7678C107.755 13.7678 107.328 13.8796 106.955 14.1033C106.587 14.3221 106.299 14.6179 106.09 14.9908C105.881 15.3587 105.774 15.7688 105.769 16.2212V18.093C105.769 18.6598 105.874 19.1495 106.082 19.5621C106.296 19.9748 106.597 20.293 106.985 20.5167C107.373 20.7404 107.832 20.8523 108.364 20.8523C108.717 20.8523 109.04 20.8026 109.334 20.7031C109.627 20.6037 109.878 20.4545 110.087 20.2557C110.296 20.0568 110.455 19.8132 110.564 19.5249L113.502 19.7188C113.353 20.4247 113.048 21.0412 112.585 21.5682C112.128 22.0902 111.536 22.4979 110.81 22.7912C110.089 23.0795 109.257 23.2237 108.312 23.2237ZM115.643 23V11.5455H118.723V13.544H118.842C119.051 12.8331 119.401 12.2962 119.893 11.9332C120.386 11.5653 120.952 11.3814 121.594 11.3814C121.753 11.3814 121.924 11.3913 122.108 11.4112C122.292 11.4311 122.454 11.4585 122.593 11.4933V14.3121C122.444 14.2674 122.238 14.2276 121.974 14.1928C121.711 14.158 121.469 14.1406 121.251 14.1406C120.783 14.1406 120.366 14.2425 119.998 14.4464C119.635 14.6452 119.347 14.9237 119.133 15.2816C118.924 15.6396 118.82 16.0522 118.82 16.5195V23H115.643ZM130.902 11.5455V13.9318H124.004V11.5455H130.902ZM125.57 8.80114H128.747V19.4801C128.747 19.7734 128.792 20.0021 128.881 20.1662C128.971 20.3253 129.095 20.4371 129.254 20.5018C129.418 20.5664 129.607 20.5987 129.821 20.5987C129.97 20.5987 130.119 20.5863 130.269 20.5614C130.418 20.5316 130.532 20.5092 130.612 20.4943L131.111 22.8583C130.952 22.908 130.728 22.9652 130.44 23.0298C130.152 23.0994 129.801 23.1417 129.389 23.1566C128.623 23.1864 127.952 23.0845 127.375 22.8509C126.803 22.6172 126.358 22.2543 126.04 21.7621C125.722 21.2699 125.565 20.6484 125.57 19.8977V8.80114ZM134.933 27.2955C134.53 27.2955 134.153 27.2631 133.8 27.1985C133.452 27.1388 133.163 27.0618 132.935 26.9673L133.65 24.5959C134.023 24.7102 134.359 24.7724 134.657 24.7823C134.96 24.7923 135.222 24.7227 135.44 24.5735C135.664 24.4244 135.845 24.1708 135.985 23.8129L136.171 23.3281L132.062 11.5455H135.403L137.774 19.9574H137.894L140.288 11.5455H143.651L139.199 24.2379C138.985 24.8544 138.694 25.3913 138.326 25.8487C137.963 26.3111 137.503 26.6665 136.947 26.9151C136.39 27.1687 135.719 27.2955 134.933 27.2955ZM150.197 23V7.72727H160.488V10.3896H153.426V14.0288H159.958V16.6911H153.426V20.3377H160.518V23H150.197ZM164.957 27.2955C164.554 27.2955 164.176 27.2631 163.823 27.1985C163.475 27.1388 163.187 27.0618 162.958 26.9673L163.674 24.5959C164.047 24.7102 164.382 24.7724 164.681 24.7823C164.984 24.7923 165.245 24.7227 165.464 24.5735C165.687 24.4244 165.869 24.1708 166.008 23.8129L166.195 23.3281L162.085 11.5455H165.426L167.798 19.9574H167.917L170.311 11.5455H173.674L169.222 24.2379C169.008 24.8544 168.718 25.3913 168.35 25.8487C167.987 26.3111 167.527 26.6665 166.97 26.9151C166.413 27.1687 165.742 27.2955 164.957 27.2955ZM180.151 23.2237C178.973 23.2237 177.959 22.9851 177.108 22.5078C176.263 22.0256 175.612 21.3445 175.155 20.4645C174.697 19.5795 174.468 18.533 174.468 17.3249C174.468 16.1467 174.697 15.1126 175.155 14.2227C175.612 13.3327 176.256 12.6392 177.086 12.142C177.921 11.6449 178.901 11.3963 180.024 11.3963C180.78 11.3963 181.483 11.5181 182.135 11.7617C182.791 12.0004 183.363 12.3608 183.85 12.843C184.342 13.3253 184.725 13.9318 184.998 14.6626C185.272 15.3885 185.408 16.2386 185.408 17.2131V18.0856H175.736V16.1168H182.418C182.418 15.6594 182.319 15.2543 182.12 14.9013C181.921 14.5483 181.645 14.2724 181.292 14.0735C180.944 13.8697 180.539 13.7678 180.076 13.7678C179.594 13.7678 179.167 13.8796 178.794 14.1033C178.426 14.3221 178.138 14.6179 177.929 14.9908C177.72 15.3587 177.613 15.7688 177.608 16.2212V18.093C177.608 18.6598 177.712 19.1495 177.921 19.5621C178.135 19.9748 178.436 20.293 178.824 20.5167C179.211 20.7404 179.671 20.8523 180.203 20.8523C180.556 20.8523 180.879 20.8026 181.173 20.7031C181.466 20.6037 181.717 20.4545 181.926 20.2557C182.135 20.0568 182.294 19.8132 182.403 19.5249L185.341 19.7188C185.192 20.4247 184.886 21.0412 184.424 21.5682C183.967 22.0902 183.375 22.4979 182.649 22.7912C181.928 23.0795 181.096 23.2237 180.151 23.2237Z" fill="white"/>
</svg>
